TITLE ""
FILE "Step2_Track05.mp3" MP3
  TRACK 01 AUDIO
    TITLE "Step2_Track05_01"
    INDEX 01 00:00:00
  TRACK 02 AUDIO
    TITLE "Step2_Track05_02"
    INDEX 01 00:00:24
  TRACK 03 AUDIO
    TITLE "Step2_Track05_03"
    INDEX 01 00:01:55
  TRACK 04 AUDIO
    TITLE "Step2_Track05_04"
    INDEX 01 00:02:43
  TRACK 05 AUDIO
    TITLE "Step2_Track05_05"
    INDEX 01 00:03:36
  TRACK 06 AUDIO
    TITLE "Step2_Track05_06"
    INDEX 01 00:03:56
  TRACK 07 AUDIO
    TITLE "Step2_Track05_07"
    INDEX 01 00:05:43
  TRACK 08 AUDIO
    TITLE "Step2_Track05_08"
    INDEX 01 00:06:13
  TRACK 09 AUDIO
    TITLE "Step2_Track05_09"
    INDEX 01 00:07:14
  TRACK 10 AUDIO
    TITLE "Step2_Track05_10"
    INDEX 01 00:07:30
  TRACK 11 AUDIO
    TITLE "Step2_Track05_11"
    INDEX 01 00:10:50
  TRACK 12 AUDIO
    TITLE "Step2_Track05_12"
    INDEX 01 00:10:75
  TRACK 13 AUDIO
    TITLE "Step2_Track05_13"
    INDEX 01 00:12:02
  TRACK 14 AUDIO
    TITLE "Step2_Track05_14"
    INDEX 01 00:12:17
  TRACK 15 AUDIO
    TITLE "Step2_Track05_15"
    INDEX 01 00:14:22
  TRACK 16 AUDIO
    TITLE "Step2_Track05_16"
    INDEX 01 00:14:61
  TRACK 17 AUDIO
    TITLE "Step2_Track05_17"
    INDEX 01 00:15:63
  TRACK 18 AUDIO
    TITLE "Step2_Track05_18"
    INDEX 01 00:15:75
  TRACK 19 AUDIO
    TITLE "Step2_Track05_19"
    INDEX 01 00:18:63
  TRACK 20 AUDIO
    TITLE "Step2_Track05_20"
    INDEX 01 00:19:17
  TRACK 21 AUDIO
    TITLE "Step2_Track05_21"
    INDEX 01 00:20:15
  TRACK 22 AUDIO
    TITLE "Step2_Track05_22"
    INDEX 01 00:20:37
  TRACK 23 AUDIO
    TITLE "Step2_Track05_23"
    INDEX 01 00:23:31
  TRACK 24 AUDIO
    TITLE "Step2_Track05_24"
    INDEX 01 00:23:52
  TRACK 25 AUDIO
    TITLE "Step2_Track05_25"
    INDEX 01 00:24:58
  TRACK 26 AUDIO
    TITLE "Step2_Track05_26"
    INDEX 01 00:24:75
  TRACK 27 AUDIO
    TITLE "Step2_Track05_27"
    INDEX 01 00:26:72
  TRACK 28 AUDIO
    TITLE "Step2_Track05_28"
    INDEX 01 00:27:13
  TRACK 29 AUDIO
    TITLE "Step2_Track05_29"
    INDEX 01 00:28:18
  TRACK 30 AUDIO
    TITLE "Step2_Track05_30"
    INDEX 01 00:28:36
  TRACK 31 AUDIO
    TITLE "Step2_Track05_31"
    INDEX 01 00:30:62
  TRACK 32 AUDIO
    TITLE "Step2_Track05_32"
    INDEX 01 00:31:17
  TRACK 33 AUDIO
    TITLE "Step2_Track05_33"
    INDEX 01 00:32:08
  TRACK 34 AUDIO
    TITLE "Step2_Track05_34"
    INDEX 01 00:32:22
  TRACK 35 AUDIO
    TITLE "Step2_Track05_35"
    INDEX 01 00:34:66
  TRACK 36 AUDIO
    TITLE "Step2_Track05_36"
    INDEX 01 00:35:16
  TRACK 37 AUDIO
    TITLE "Step2_Track05_37"
    INDEX 01 00:36:22
  TRACK 38 AUDIO
    TITLE "Step2_Track05_38"
    INDEX 01 00:36:39
  TRACK 39 AUDIO
    TITLE "Step2_Track05_39"
    INDEX 01 00:38:62
  TRACK 40 AUDIO
    TITLE "Step2_Track05_40"
    INDEX 01 00:39:34
  TRACK 41 AUDIO
    TITLE "Step2_Track05_41"
    INDEX 01 00:40:33
  TRACK 42 AUDIO
    TITLE "Step2_Track05_42"
    INDEX 01 00:40:43
  TRACK 43 AUDIO
    TITLE "Step2_Track05_43"
    INDEX 01 00:42:58
